<?xml version="1.0" encoding="UTF-8"?>
<svg id="Layer_2" data-name="Layer 2" xmlns="http://www.w3.org/2000/svg" viewBox="0 0 600 284.03">
  <defs>
    <style>
      .cls-1 {
        fill: #fff;
        stroke-width: 0px;
      }
    </style>
  </defs>
  <g id="Layer_1-2" data-name="Layer 1">
    <g>
      <polygon class="cls-1" points="214.96 265.87 234.37 265.87 234.37 258.28 214.96 258.28 214.96 249.26 236.94 249.26 236.94 241.49 205.34 241.49 205.34 283.31 237.72 283.31 237.72 275.55 214.96 275.55 214.96 265.87"/>
      <rect class="cls-1" x="137.47" y="241.49" width="9.74" height="41.82"/>
      <polygon class="cls-1" points="185.86 266.87 165.07 241.49 157.06 241.49 157.06 283.31 166.62 283.31 166.62 257.94 187.41 283.31 195.42 283.31 195.42 241.49 185.86 241.49 185.86 266.87"/>
      <path class="cls-1" d="m39.25,246.87c-2.07-1.95-4.49-3.45-7.26-4.51-2.77-1.06-5.81-1.58-9.11-1.58s-6.34.54-9.11,1.61c-2.77,1.08-5.19,2.59-7.26,4.54-2.07,1.95-3.67,4.23-4.81,6.84-1.14,2.61-1.7,5.49-1.7,8.63s.57,5.97,1.7,8.6c1.14,2.63,2.74,4.92,4.81,6.87,2.07,1.95,4.5,3.47,7.29,4.54,2.79,1.08,5.83,1.61,9.14,1.61s6.28-.53,9.05-1.58c2.77-1.05,5.19-2.56,7.26-4.51,2.07-1.95,3.67-4.25,4.81-6.9,1.14-2.65,1.7-5.53,1.7-8.63s-.57-6.03-1.7-8.66c-1.14-2.63-2.74-4.92-4.81-6.87Zm-4.27,20.94c-.66,1.61-1.58,3.03-2.78,4.24-1.2,1.22-2.58,2.15-4.15,2.81-1.57.66-3.3.99-5.17.99s-3.6-.33-5.2-.99c-1.59-.66-2.98-1.59-4.15-2.81-1.18-1.21-2.09-2.63-2.75-4.24-.66-1.61-.99-3.41-.99-5.41s.33-3.79.99-5.41c.66-1.61,1.57-3.03,2.75-4.24,1.17-1.21,2.56-2.15,4.15-2.81,1.59-.66,3.33-.99,5.2-.99s3.59.33,5.17.99c1.57.66,2.96,1.59,4.15,2.81,1.19,1.22,2.12,2.63,2.78,4.24.66,1.61.99,3.42.99,5.41s-.33,3.79-.99,5.41Z"/>
      <polygon class="cls-1" points="111.06 241.49 101.32 241.49 101.32 283.31 131.91 283.31 131.91 275.43 111.06 275.43 111.06 241.49"/>
      <polygon class="cls-1" points="81.85 266.87 61.06 241.49 53.05 241.49 53.05 283.31 62.61 283.31 62.61 257.94 83.4 283.31 91.41 283.31 91.41 241.49 81.85 241.49 81.85 266.87"/>
      <path class="cls-1" d="m413.18,252.73c1.19-1.2,2.61-2.12,4.24-2.78,1.63-.66,3.42-.99,5.38-.99,2.07,0,3.99.42,5.77,1.25,1.77.84,3.35,2.07,4.75,3.7l6.27-5.74c-1.99-2.43-4.46-4.27-7.41-5.53-2.95-1.25-6.23-1.88-9.86-1.88-3.23,0-6.22.53-8.99,1.58-2.77,1.06-5.18,2.56-7.23,4.51-2.05,1.95-3.64,4.24-4.78,6.87-1.14,2.63-1.7,5.52-1.7,8.66s.57,6.03,1.7,8.66c1.14,2.63,2.72,4.92,4.75,6.87,2.03,1.95,4.43,3.46,7.2,4.51,2.77,1.06,5.77,1.58,8.99,1.58,3.66,0,6.97-.64,9.92-1.91,2.95-1.27,5.42-3.13,7.41-5.56l-6.27-5.74c-1.39,1.63-2.98,2.88-4.75,3.73-1.77.86-3.7,1.28-5.77,1.28-1.95,0-3.74-.33-5.38-.99-1.63-.66-3.05-1.58-4.24-2.78-1.19-1.2-2.12-2.61-2.78-4.24-.66-1.63-.99-3.44-.99-5.44s.33-3.8.99-5.44c.66-1.63,1.58-3.05,2.78-4.24Z"/>
      <polygon class="cls-1" points="542.65 266.87 521.86 241.49 513.85 241.49 513.85 283.31 523.41 283.31 523.41 257.94 544.2 283.31 552.2 283.31 552.2 241.49 542.65 241.49 542.65 266.87"/>
      <path class="cls-1" d="m573.09,252.73c1.21-1.2,2.66-2.12,4.33-2.78,1.67-.66,3.5-.99,5.5-.99,2.15,0,4.12.39,5.91,1.16,1.79.78,3.47,1.98,5.02,3.61l6.15-5.74c-2.03-2.35-4.53-4.14-7.5-5.38-2.97-1.23-6.3-1.85-10.01-1.85-3.35,0-6.41.53-9.2,1.58-2.79,1.06-5.22,2.56-7.29,4.51-2.07,1.95-3.67,4.24-4.81,6.87-1.14,2.63-1.7,5.52-1.7,8.66s.57,6.03,1.7,8.66c1.14,2.63,2.72,4.92,4.75,6.87,2.03,1.95,4.44,3.46,7.23,4.51,2.79,1.06,5.83,1.58,9.14,1.58,2.99,0,5.97-.45,8.96-1.34,2.99-.9,5.64-2.22,7.95-3.97v-16.97h-8.84v12.27c-.64.34-1.29.64-1.94.87-1.81.64-3.67.96-5.59.96s-3.81-.34-5.47-1.02c-1.65-.68-3.09-1.61-4.3-2.81-1.22-1.2-2.15-2.62-2.81-4.27-.66-1.65-.99-3.44-.99-5.35s.33-3.8.99-5.44c.66-1.63,1.59-3.05,2.81-4.24Z"/>
      <path class="cls-1" d="m273.26,252.73c1.19-1.2,2.61-2.12,4.24-2.78,1.63-.66,3.42-.99,5.38-.99,2.07,0,3.99.42,5.77,1.25,1.77.84,3.35,2.07,4.75,3.7l6.27-5.74c-1.99-2.43-4.46-4.27-7.41-5.53-2.95-1.25-6.23-1.88-9.86-1.88-3.23,0-6.22.53-8.99,1.58-2.77,1.06-5.18,2.56-7.23,4.51-2.05,1.95-3.64,4.24-4.78,6.87-1.14,2.63-1.7,5.52-1.7,8.66s.57,6.03,1.7,8.66c1.14,2.63,2.72,4.92,4.75,6.87,2.03,1.95,4.43,3.46,7.2,4.51,2.77,1.06,5.77,1.58,8.99,1.58,3.66,0,6.97-.64,9.92-1.91,2.95-1.27,5.42-3.13,7.41-5.56l-6.27-5.74c-1.39,1.63-2.98,2.88-4.75,3.73-1.77.86-3.7,1.28-5.77,1.28-1.95,0-3.74-.33-5.38-.99-1.63-.66-3.05-1.58-4.24-2.78-1.19-1.2-2.12-2.61-2.78-4.24-.66-1.63-.99-3.44-.99-5.44s.33-3.8.99-5.44c.66-1.63,1.58-3.05,2.78-4.24Z"/>
      <rect class="cls-1" x="494.25" y="241.49" width="9.74" height="41.82"/>
      <path class="cls-1" d="m342.69,246.87c-2.07-1.95-4.49-3.45-7.26-4.51-2.77-1.06-5.81-1.58-9.11-1.58s-6.34.54-9.11,1.61c-2.77,1.08-5.19,2.59-7.26,4.54-2.07,1.95-3.67,4.23-4.81,6.84-1.14,2.61-1.7,5.49-1.7,8.63s.57,5.97,1.7,8.6c1.14,2.63,2.74,4.92,4.81,6.87,2.07,1.95,4.5,3.47,7.29,4.54,2.79,1.08,5.83,1.61,9.14,1.61s6.28-.53,9.05-1.58c2.77-1.05,5.19-2.56,7.26-4.51,2.07-1.95,3.67-4.25,4.81-6.9,1.14-2.65,1.7-5.53,1.7-8.63s-.57-6.03-1.7-8.66c-1.14-2.63-2.74-4.92-4.81-6.87Zm-4.27,20.94c-.66,1.61-1.58,3.03-2.78,4.24-1.2,1.22-2.58,2.15-4.15,2.81-1.57.66-3.3.99-5.17.99s-3.61-.33-5.2-.99c-1.59-.66-2.98-1.59-4.15-2.81-1.18-1.21-2.09-2.63-2.75-4.24-.66-1.61-.99-3.41-.99-5.41s.33-3.79.99-5.41c.66-1.61,1.57-3.03,2.75-4.24,1.17-1.21,2.56-2.15,4.15-2.81,1.59-.66,3.33-.99,5.2-.99s3.59.33,5.17.99c1.57.66,2.96,1.59,4.15,2.81,1.19,1.22,2.12,2.63,2.78,4.24.66,1.61.99,3.42.99,5.41s-.33,3.79-.99,5.41Z"/>
      <path class="cls-1" d="m369.57,241.49l-18.58,41.82h9.92l3.73-8.96h19.37l3.73,8.96h10.16l-18.76-41.82h-9.56Zm-1.88,25.51l6.63-15.94,6.63,15.94h-13.26Z"/>
      <polygon class="cls-1" points="474.66 257.98 455.72 257.98 455.72 241.49 445.98 241.49 445.98 283.31 455.72 283.31 455.72 266.17 474.66 266.17 474.66 283.31 484.34 283.31 484.34 241.49 474.66 241.49 474.66 257.98"/>
      <path class="cls-1" d="m71.27,36.33v120.25c0,10.73,8.7,19.43,19.43,19.43h9.15V16.9h-9.15c-10.73,0-19.43,8.7-19.43,19.43Z"/>
      <path class="cls-1" d="m53.63,154.87h10.58V38.04h-10.58c-9.94,0-18,8.06-18,18v80.84c0,9.94,8.06,18,18,18Z"/>
      <path class="cls-1" d="m14.92,125.5h13.66v-58.09h-13.66c-8.24,0-14.92,6.68-14.92,14.92v28.24c0,8.24,6.68,14.92,14.92,14.92Z"/>
      <path class="cls-1" d="m528.73,156.58V36.33c0-10.73-8.7-19.43-19.43-19.43h-9.15v159.12h9.15c10.73,0,19.43-8.7,19.43-19.43Z"/>
      <path class="cls-1" d="m564.37,56.04c0-9.94-8.06-18-18-18h-10.58v116.83h10.58c9.94,0,18-8.06,18-18V56.04Z"/>
      <path class="cls-1" d="m585.08,67.41h-13.66v58.09h13.66c8.24,0,14.92-6.68,14.92-14.92v-28.24c0-8.24-6.68-14.92-14.92-14.92Z"/>
      <path class="cls-1" d="m324.91,192.91s8.51-10.8,12.28-16.13c29.05-41.1,74.79-102.47,98.42-133.86v119.5c-14.39,0-43.46.49-43.46.49,0,0-6.49,9-21.65,29.99h97.49V0h-40.54s-108.31,145.4-142.63,192.88c6.84,0,40.09.03,40.09.03Z"/>
      <path class="cls-1" d="m346.41,0s-81.96,110.25-86.33,116.07V.01c-3.91,0-12.88,0-15.23,0-4.41,5.84-62.38,83.92-76.03,102.2,0,0,0,0,0,0-2.13,2.84-4.14,5.52-6.01,8v-10.96s0,0,0,0V0h-30.79v192.88h9.43s59.8-79.78,79.7-106.39c0,0-.02,0-.02-.01,2.66-3.55,5.15-6.87,7.43-9.9v9.74s0,0-.01,0c-.04,35.35-.43,71.29-.43,106.58h15.08C245.48,190.05,381.99,6.19,386.61.02c-7.68,0-40.2-.02-40.2-.02Z"/>
    </g>
  </g>
</svg>